<svg width="83" height="82" viewBox="0 0 83 82" fill="none" xmlns="http://www.w3.org/2000/svg">
<path d="M81.5 41C81.5 62.7982 63.6086 80.5 41.5 80.5C19.3914 80.5 1.5 62.7982 1.5 41C1.5 19.2018 19.3914 1.5 41.5 1.5C63.6086 1.5 81.5 19.2018 81.5 41Z" fill="white" stroke="#201E1E" stroke-width="3"/>
<path d="M52.3938 30.2538C52.0707 29.9339 51.6321 29.7541 51.1747 29.7541C50.7173 29.7541 50.2787 29.9339 49.9556 30.2538L41.5 38.5905L33.0444 30.2367C32.7213 29.9168 32.2827 29.7371 31.8253 29.7371C31.3679 29.7371 30.9293 29.9168 30.6062 30.2367C29.9319 30.903 29.9319 31.9792 30.6062 32.6455L39.0619 40.9992L30.6062 49.353C29.9319 50.0192 29.9319 51.0955 30.6062 51.7617C31.2806 52.428 32.37 52.428 33.0444 51.7617L41.5 43.408L49.9556 51.7617C50.63 52.428 51.7194 52.428 52.3938 51.7617C53.0681 51.0955 53.0681 50.0192 52.3938 49.353L43.9381 40.9992L52.3938 32.6455C53.0508 31.9963 53.0508 30.903 52.3938 30.2538Z" fill="#201E1E"/>
</svg>
