<svg width="63" height="63" viewBox="0 0 63 63" fill="none" xmlns="http://www.w3.org/2000/svg">
<path fill-rule="evenodd" clip-rule="evenodd" d="M56.625 0.791504H17.5416C14.4708 0.791504 11.9583 3.304 11.9583 6.37484V45.4582C11.9583 48.529 14.4708 51.0415 17.5416 51.0415H56.625C59.6958 51.0415 62.2083 48.529 62.2083 45.4582V6.37484C62.2083 3.304 59.6958 0.791504 56.625 0.791504ZM3.58329 11.9582C2.04788 11.9582 0.791626 13.2144 0.791626 14.7498V56.6248C0.791626 59.6957 3.30413 62.2082 6.37496 62.2082H48.25C49.7854 62.2082 51.0416 60.9519 51.0416 59.4165C51.0416 57.8811 49.7854 56.6248 48.25 56.6248H9.16663C7.63121 56.6248 6.37496 55.3686 6.37496 53.8332V14.7498C6.37496 13.2144 5.11871 11.9582 3.58329 11.9582ZM20.3333 45.4582H53.8333C55.3687 45.4582 56.625 44.2019 56.625 42.6665V9.1665C56.625 7.63109 55.3687 6.37484 53.8333 6.37484H20.3333C18.7979 6.37484 17.5416 7.63109 17.5416 9.1665V42.6665C17.5416 44.2019 18.7979 45.4582 20.3333 45.4582Z" fill="#94A4B5"/>
</svg>
