<svg width="131" height="60" viewBox="0 0 131 60" fill="none" xmlns="http://www.w3.org/2000/svg">
<path d="M86.2438 27.7672C86.2438 24.338 86.2438 20.9153 86.2438 17.4861C86.2438 17.3335 86.2505 17.1743 86.2438 17.0218C86.2304 16.7697 86.3575 16.6503 86.5916 16.637C86.7722 16.6238 86.9462 16.6171 87.1268 16.6171C89.0197 16.6171 90.9194 16.6304 92.8123 16.6105C93.9294 16.5973 94.9126 16.9621 95.7621 17.632C97.3073 18.8591 98.2236 20.4577 98.6986 22.3746C99.0263 23.6946 99.0196 25.0212 98.8725 26.3212C98.645 28.3775 97.7889 30.2082 96.2036 31.6343C96.1233 31.7073 96.0497 31.7935 95.9628 31.8598C95.7019 32.0588 95.6283 32.2644 95.7822 32.5961C96.2571 33.6375 96.6852 34.6987 97.14 35.7468C97.5481 36.6953 97.9695 37.6372 98.3909 38.579C98.5046 38.8311 98.4377 38.9571 98.1501 38.9571C98.1032 38.9571 98.0631 38.9571 98.0163 38.9571C96.8792 38.9439 97.0732 39.0964 96.625 38.1214C95.9227 36.5825 95.2805 35.0171 94.625 33.4584C94.3708 32.8548 94.3441 32.8017 93.7019 32.9609C93.1936 33.0869 92.6919 33.1068 92.1769 33.1068C90.8592 33.1068 89.5481 33.1002 88.2304 33.1068C87.6752 33.1068 87.6619 33.1201 87.6619 33.6574C87.6552 35.2028 87.6619 36.755 87.6552 38.3005C87.6552 38.9505 87.6485 38.9505 86.9796 38.9571C86.8659 38.9571 86.7589 38.9505 86.6452 38.9571C86.3776 38.9638 86.2238 38.8643 86.2371 38.5724C86.2438 38.3933 86.2371 38.2209 86.2371 38.0418C86.2438 34.6191 86.2438 31.1899 86.2438 27.7672ZM87.6686 24.7426C87.6686 26.7988 87.6686 28.8484 87.6686 30.9047C87.6686 31.5481 87.6752 31.5481 88.3374 31.5547C89.8291 31.5547 91.3207 31.5348 92.8123 31.568C93.3675 31.5812 93.8692 31.422 94.3307 31.17C96.1835 30.1618 97.1066 28.4836 97.4544 26.5136C97.6083 25.6447 97.6417 24.7426 97.5481 23.8272C97.4076 22.4476 96.9728 21.2138 96.1768 20.0995C95.207 18.7397 93.9026 17.9902 92.1769 18.0366C90.8859 18.0698 89.595 18.0432 88.304 18.0432C87.6752 18.0432 87.6686 18.0499 87.6686 18.6535C87.6619 20.6765 87.6686 22.7129 87.6686 24.7426Z" fill="white"/>
<path d="M32.6053 27.7937C32.6053 24.3711 32.6053 20.9418 32.6053 17.5192C32.6053 17.3666 32.6187 17.2074 32.6053 17.0549C32.5852 16.7697 32.7391 16.6503 32.9999 16.6304C33.1538 16.6171 33.3143 16.6171 33.4682 16.6171C35.3611 16.6171 37.2541 16.6237 39.1537 16.6171C40.6855 16.6105 41.8627 17.3202 42.8928 18.355C43.8761 19.3499 44.4982 20.5637 44.9262 21.8704C45.0734 22.3215 45.2005 22.8123 45.2206 23.2833C45.2741 24.2981 45.3476 25.3329 45.2072 26.3278C44.9798 27.9927 44.3778 29.5448 43.2674 30.8648C42.9396 31.2561 42.5985 31.6276 42.1838 31.9327C41.9631 32.0919 41.9162 32.2378 42.05 32.5363C42.7524 34.0951 43.4079 35.6737 44.0834 37.2391C44.264 37.6636 44.4714 38.0749 44.652 38.4994C44.7992 38.8377 44.7323 38.9305 44.3644 38.9571C43.3811 39.03 43.2674 38.9372 42.8928 38.0351C42.2039 36.4034 41.4748 34.7849 40.7724 33.1532C40.6922 32.9675 40.632 32.8282 40.4045 32.8812C38.6922 33.3057 36.9464 33.0404 35.214 33.1001C33.7892 33.1466 33.9966 32.9144 33.9832 34.3405C33.9698 35.6671 33.9832 36.9937 33.9765 38.3203C33.9765 38.5392 34.01 38.8244 33.7692 38.904C33.4347 39.0101 33.0668 39.0035 32.719 38.8907C32.6655 38.8708 32.6187 38.7448 32.612 38.6652C32.5919 38.4928 32.5986 38.3137 32.5986 38.1346C32.6053 34.6921 32.6053 31.2429 32.6053 27.7937ZM33.923 24.7492C33.923 26.8054 33.923 28.8616 33.923 30.9179C33.923 31.5347 33.9431 31.5546 34.5585 31.5546C36.117 31.5613 37.6755 31.5546 39.2407 31.5546C39.7892 31.5546 40.2708 31.349 40.7524 31.1169C41.7356 30.6459 42.3644 29.8234 42.8861 28.9213C43.4413 27.9662 43.7289 26.9314 43.8761 25.8171C44.0032 24.8487 43.9095 23.9134 43.7557 22.9981C43.5416 21.7312 42.9798 20.5704 42.1035 19.5953C41.2474 18.6402 40.1771 18.0498 38.8527 18.0432C37.428 18.0299 36.0033 18.0366 34.5718 18.0432C33.923 18.0432 33.9163 18.0498 33.9163 18.7198C33.923 20.7229 33.923 22.7394 33.923 24.7492Z" fill="white"/>
<path d="M125.387 38.9637C124.705 38.9637 124.705 38.9637 124.464 38.2872C124.17 37.4647 123.848 36.6488 123.574 35.8197C123.487 35.5544 123.347 35.4681 123.099 35.4748C122.986 35.4748 122.879 35.4748 122.765 35.4748C119.354 35.4748 115.942 35.4748 112.538 35.4748C111.822 35.4748 111.849 35.3952 111.594 36.1182C111.307 36.9473 110.972 37.7565 110.705 38.5923C110.611 38.8908 110.457 38.9571 110.183 38.9637C109.14 39.0035 109.146 38.9969 109.454 38.0351C109.989 36.3636 110.624 34.7319 111.166 33.067C111.701 31.422 112.357 29.8168 112.939 28.1851C113.507 26.5932 114.043 24.988 114.604 23.3894C115.146 21.8439 115.701 20.2984 116.243 18.753C116.424 18.2356 116.591 17.7116 116.758 17.1942C116.905 16.7299 117.032 16.6238 117.501 16.6105C118.223 16.5906 118.27 16.6105 118.457 17.1544C119.006 18.7264 119.527 20.3051 120.096 21.8638C120.925 24.1058 121.661 26.3809 122.511 28.6162C123.126 30.2347 123.641 31.8929 124.216 33.5247C124.738 35.0105 125.266 36.4896 125.795 37.9688C125.835 38.0749 125.868 38.1744 125.902 38.2805C126.109 38.9571 126.109 38.9637 125.387 38.9637ZM117.547 19.2438C117.394 19.5754 117.32 19.9469 117.186 20.2852C116.43 22.1623 115.849 24.0925 115.139 25.9829C114.665 27.2565 114.257 28.5499 113.808 29.8367C113.434 30.9113 113.039 31.9792 112.665 33.0604C112.39 33.8497 112.464 33.9425 113.287 33.9425C116.116 33.9425 118.945 33.9425 121.768 33.9425C122.925 33.9425 122.999 33.8762 122.544 32.8149C122.123 31.82 121.828 30.7919 121.447 29.7837C120.912 28.3907 120.497 26.9514 119.989 25.5518C119.273 23.5752 118.544 21.5985 117.895 19.5954C117.842 19.4362 117.755 19.3168 117.547 19.2438Z" fill="white"/>
<path d="M68.4043 50.127C66.6183 50.127 64.8324 50.0275 63.0598 50.1602C61.5816 50.2663 60.09 50.2862 58.6184 50.5648C57.9027 50.7041 57.1535 50.6709 56.4311 50.8036C55.4746 50.976 54.5047 51.0689 53.5415 51.248C52.5583 51.4271 51.575 51.5995 50.5917 51.7786C48.8927 52.0904 47.2138 52.4883 45.555 52.946C43.6888 53.4568 41.8159 53.9941 39.9898 54.6574C39.0935 54.9757 38.2039 55.3074 37.3076 55.6258C36.8728 55.7783 36.7323 55.712 36.5718 55.3273C36.4046 54.9293 36.4915 54.7038 36.9129 54.5579C38.2908 54.0869 39.6888 53.6558 41.0601 53.1583C42.2239 52.7404 43.4145 52.4088 44.5985 52.0705C45.6353 51.7786 46.6787 51.4669 47.7556 51.301C48.1503 51.2413 48.5249 51.102 48.9128 51.0158C50.0633 50.7638 51.2205 50.5847 52.3643 50.3326C53.6887 50.0474 55.0331 49.8816 56.3642 49.6759C57.1468 49.5566 57.9629 49.5234 58.7455 49.4106C60.3776 49.1851 62.023 49.2382 63.6551 48.9927C64.3307 48.8866 65.033 48.9463 65.722 48.9463C67.9762 48.9463 70.2303 48.8601 72.4778 48.9994C74.1366 49.0989 75.8089 49.0922 77.461 49.3443C78.451 49.4969 79.461 49.4372 80.451 49.6162C81.5412 49.8086 82.6583 49.8285 83.7419 50.0673C84.3439 50.2 84.966 50.2199 85.5813 50.3393C86.772 50.5714 87.9693 50.7903 89.1666 50.9959C90.4107 51.2148 91.6281 51.5398 92.8722 51.7654C93.802 51.9378 94.7117 52.2297 95.6281 52.4817C96.9926 52.8532 98.3571 53.2246 99.7083 53.6226C100.364 53.815 101.006 54.0537 101.655 54.2726C102.638 54.6109 103.621 54.9359 104.598 55.2941C105.133 55.4865 105.173 55.7054 104.872 56.2028C104.725 56.4483 104.564 56.4682 104.317 56.3819C102.825 55.8513 101.34 55.2809 99.822 54.8166C98.9591 54.5512 98.0762 54.3323 97.2133 54.0538C96.2234 53.7354 95.2067 53.5098 94.21 53.2246C93.1264 52.9129 92.0094 52.7205 90.9124 52.4685C90.3104 52.3358 89.7084 52.2031 89.1064 52.0439C88.6716 51.9312 88.2301 51.9046 87.7954 51.8317C87.1599 51.7256 86.5245 51.6062 85.8957 51.4868C85.1599 51.3475 84.4041 51.3077 83.6683 51.1087C83.0128 50.9296 82.3038 50.9627 81.6215 50.8633C80.6316 50.724 79.6148 50.7041 78.6383 50.5449C77.1199 50.2995 75.5814 50.3525 74.0631 50.1469C72.9259 49.9877 71.7487 50.0872 70.5915 50.0739C69.8557 50.0673 69.12 50.0739 68.3842 50.0739C68.4043 50.1005 68.4043 50.1137 68.4043 50.127Z" fill="white"/>
<path d="M18.291 27.7672C18.291 24.3843 18.291 21.0081 18.291 17.6253C18.291 17.5126 18.291 17.4064 18.291 17.2937C18.2977 16.6569 18.3245 16.6237 18.98 16.6237C20.786 16.6171 22.592 16.6171 24.398 16.6237C25.6822 16.6304 26.7525 17.1278 27.6956 17.9769C29.02 19.1708 29.8093 20.65 30.224 22.3679C30.5651 23.7741 30.5451 25.1936 30.3712 26.5799C30.1437 28.4238 29.3277 30.0755 28.01 31.4286C26.9464 32.523 25.602 33.0603 24.0769 33.1068C22.8328 33.1465 21.582 33.1134 20.3311 33.1134C19.6823 33.1134 19.6756 33.12 19.6756 33.79C19.6689 35.2028 19.6756 36.6156 19.6756 38.0351C19.6756 38.1876 19.6756 38.3468 19.6689 38.4994C19.6556 38.8111 19.5218 39.0035 19.1739 38.9703C19.1271 38.9637 19.087 38.9703 19.0402 38.9703C18.3111 38.9836 18.2977 38.977 18.2977 38.2473C18.291 34.7451 18.291 31.2561 18.291 27.7672ZM19.6154 24.8155C19.6154 26.8253 19.6154 28.8351 19.6154 30.8449C19.6154 31.548 19.6221 31.5546 20.3111 31.5546C21.602 31.5546 22.893 31.5281 24.1839 31.5679C25.2809 31.6011 26.1705 31.1765 26.9264 30.4535C28.6254 28.8417 29.2274 26.7789 29.1872 24.5303C29.1672 23.3098 28.8996 22.0893 28.2842 20.9949C27.2742 19.1973 25.9164 17.957 23.6622 18.0366C22.5719 18.0764 21.4816 18.0432 20.3913 18.0432C19.6154 18.0432 19.6087 18.0432 19.6087 18.7927C19.6154 20.7959 19.6154 22.8057 19.6154 24.8155Z" fill="white"/>
<path d="M65.7222 39.8591C63.5617 39.7663 61.7356 39.0035 60.3978 37.2391C59.8226 36.4763 59.3343 35.6803 58.9597 34.8048C58.8527 34.5527 58.8192 34.4201 59.0734 34.2675C59.341 34.115 59.5617 33.8231 59.8694 33.8297C60.3042 33.8297 60.2172 34.2874 60.3443 34.5395C61.0533 35.9788 61.9898 37.1993 63.4881 37.9024C65.1536 38.6785 67.6084 38.506 69.0666 36.9406C69.9696 35.9656 70.3241 34.8379 70.5315 33.6175C70.6385 32.994 70.3843 32.397 70.2238 31.8067C70.1101 31.3689 69.8894 30.951 69.6285 30.5663C69.2405 30.0025 68.7255 29.631 68.0767 29.4055C66.6988 28.9279 65.3342 28.4305 63.9697 27.9264C63.6821 27.8202 63.3877 27.734 63.1068 27.5947C61.2741 26.7191 60.3109 25.2466 59.9898 23.2899C59.8426 22.3812 59.8761 21.4724 60.0366 20.5902C60.3844 18.733 61.2741 17.1875 63.0065 16.2721C64.0767 15.7083 65.2606 15.6287 66.4446 15.8277C68.5382 16.1859 69.9763 17.4661 71.1067 19.1575C71.3743 19.5621 70.9395 20.3647 70.4579 20.3912C70.2171 20.4045 70.1302 20.2122 70.0164 20.0463C69.5348 19.33 69.0064 18.6534 68.2573 18.1758C67.4814 17.685 66.6854 17.2737 65.7355 17.3135C65.1469 17.3401 64.565 17.2737 63.9697 17.4992C62.5182 18.0631 61.8159 19.184 61.4547 20.5902C61.2874 21.227 61.1135 21.8704 61.2005 22.547C61.4078 24.0527 61.9965 25.3262 63.4011 26.1155C63.8092 26.3477 64.2573 26.4671 64.6921 26.6263C65.9362 27.084 67.1937 27.5085 68.4446 27.933C70.1235 28.5101 71.0131 29.7571 71.5348 31.3755C71.8826 32.4434 71.8425 33.518 71.7288 34.5859C71.4746 37.0136 69.4947 39.1627 67.2339 39.6602C66.9998 39.7132 66.7723 39.826 66.5315 39.8525C66.264 39.8857 65.9897 39.8591 65.7222 39.8591Z" fill="white"/>
<path d="M73.9562 27.701C73.9562 24.3447 73.9562 20.9817 73.9562 17.6255C73.9562 17.4729 73.9496 17.3137 73.9562 17.1611C73.9763 16.6968 73.9897 16.6769 74.4579 16.6703C75.4144 16.6637 76.3776 16.6769 77.3341 16.6637C79.4077 16.6438 81.4812 16.7101 83.5481 16.6239C84.1501 16.5973 84.1635 16.6305 84.1702 17.2606C84.1702 17.3469 84.1702 17.4397 84.1702 17.526C84.1568 18.0234 84.1501 18.0367 83.6351 18.0367C81.2271 18.0433 78.8191 18.0367 76.4111 18.0367C76.2974 18.0367 76.1903 18.0367 76.0766 18.0367C75.3342 18.0433 75.3275 18.0433 75.3275 18.7796C75.3275 21.2802 75.3275 23.7742 75.3275 26.2749C75.3275 27.0244 75.3542 27.0443 76.1301 27.0443C77.8692 27.0443 79.6083 27.0443 81.3475 27.0443C81.5281 27.0443 81.7087 27.0178 81.8826 27.0576C82.3909 27.177 82.1367 27.5949 82.1702 27.8801C82.1969 28.1189 82.2772 28.4505 81.8558 28.4837C81.702 28.4969 81.5414 28.4903 81.3876 28.4903C79.6485 28.4903 77.9094 28.4903 76.1703 28.4903C76.0164 28.4903 75.8559 28.4969 75.702 28.4903C75.4612 28.4903 75.3275 28.5964 75.3275 28.8485C75.3275 28.9347 75.3275 29.0276 75.3275 29.1138C75.3275 31.6344 75.3275 34.1549 75.3275 36.6754C75.3275 36.7617 75.3275 36.8545 75.3275 36.9408C75.3275 37.2326 75.4679 37.3984 75.7689 37.4051C75.9495 37.4117 76.1234 37.4117 76.304 37.4117C78.6452 37.4117 80.9863 37.4117 83.3274 37.4117C83.4812 37.4117 83.6417 37.4117 83.7956 37.4117C83.9093 37.4117 84.0163 37.4382 84.0899 37.5377C84.1835 37.6571 84.2036 38.7051 84.1166 38.8444C84.0631 38.924 83.9829 38.9572 83.8892 38.9638C83.7554 38.9705 83.6217 38.9705 83.4879 38.9705C80.5448 38.9705 77.6017 38.9705 74.6586 38.9705C74.5716 38.9705 74.478 38.9638 74.391 38.9705C74.1034 38.997 73.983 38.8245 73.9629 38.5791C73.9429 38.3602 73.9429 38.1347 73.9429 37.9158C73.9562 34.5064 73.9562 31.1037 73.9562 27.701Z" fill="white"/>
<path d="M47.8494 27.8336C47.8494 24.4508 47.8494 21.068 47.8494 17.6918C47.8494 17.579 47.8494 17.4729 47.8494 17.3601C47.8561 16.6438 47.8695 16.6172 48.5986 16.6172C51.5149 16.6106 54.438 16.6172 57.3543 16.6172C57.468 16.6172 57.5751 16.6239 57.6888 16.6239C57.9831 16.6371 58.1169 16.7698 58.1102 17.0815C58.0901 18.1627 58.1904 18.0301 57.2005 18.0301C54.8192 18.0367 52.4313 18.0301 50.0501 18.0301C49.8962 18.0301 49.7357 18.0367 49.5818 18.0301C49.3076 18.0168 49.1604 18.1296 49.1671 18.4148C49.1671 18.4612 49.1671 18.501 49.1671 18.5474C49.1671 21.1542 49.1604 23.761 49.1671 26.3678C49.1671 26.9117 49.2206 26.9515 49.8026 26.9581C51.6086 26.9647 53.4146 26.9515 55.2206 26.9647C55.4881 26.9647 55.8493 26.8188 56.0032 27.1637C56.1704 27.5352 56.1236 27.9464 56.0299 28.3311C55.9764 28.5434 55.7289 28.477 55.5617 28.477C54.4915 28.4837 53.4213 28.477 52.351 28.477C51.5015 28.477 50.6587 28.4704 49.8093 28.477C49.1872 28.4837 49.1671 28.4969 49.1671 29.1072C49.1604 31.3624 49.1671 33.6176 49.1671 35.8728C49.1671 36.1846 49.1604 36.4897 49.1671 36.8015C49.1805 37.352 49.2073 37.3918 49.7892 37.3918C51.127 37.3984 52.4647 37.3918 53.8025 37.3918C55.0266 37.3918 56.2507 37.3852 57.4814 37.3918C58.0901 37.3918 58.1035 37.4051 58.1035 37.9689C58.1035 39.07 58.1904 38.9439 57.1537 38.9439C54.3711 38.9506 51.5818 38.9439 48.7992 38.9439C48.6454 38.9439 48.4848 38.9373 48.331 38.9439C48.0032 38.9638 47.8227 38.8444 47.8494 38.4929C47.8628 38.3138 47.8494 38.1413 47.8494 37.9622C47.8494 34.5993 47.8494 31.2165 47.8494 27.8336Z" fill="white"/>
<path d="M106.331 35.8529C106.565 35.0304 106.832 34.2344 107.013 33.4252C107.24 32.3971 107.601 31.4088 107.815 30.3806C107.976 29.6179 108.27 28.8816 108.471 28.1254C108.625 27.5484 108.799 26.9779 108.933 26.4075C109.18 25.3396 109.528 24.2982 109.795 23.2369C110.137 21.897 110.498 20.5704 110.859 19.2372C111.046 18.5407 111.24 17.8443 111.448 17.1544C111.595 16.6569 111.621 16.6437 112.143 16.6238C112.21 16.6238 112.277 16.6238 112.344 16.6238C112.993 16.6304 113.06 16.7233 112.866 17.3136C112.631 18.0233 112.484 18.7596 112.257 19.4627C111.943 20.4444 111.715 21.446 111.427 22.4343C111.173 23.29 110.939 24.1655 110.718 25.0344C110.444 26.1156 110.123 27.1835 109.842 28.2647C109.494 29.5979 109.1 30.9246 108.765 32.2644C108.444 33.538 108.009 34.785 107.682 36.0585C107.488 36.8014 107.28 37.5377 107.086 38.2739C107.02 38.526 107.013 38.851 106.732 38.9372C106.397 39.0434 106.023 39.0102 105.675 38.9173C105.555 38.8842 105.535 38.7648 105.508 38.652C105.274 37.7433 105.046 36.8279 104.792 35.9192C104.438 34.6523 104.056 33.3987 103.702 32.1318C103.441 31.2031 103.207 30.2679 102.953 29.3393C102.591 28.006 102.224 26.6794 101.856 25.3462C101.501 24.0395 101.147 22.7261 100.785 21.4128C100.525 20.4643 100.25 19.5158 99.9895 18.5673C99.849 18.0631 99.7152 17.5524 99.5948 17.0483C99.5279 16.7697 99.6617 16.6304 99.9493 16.6304C100.15 16.6304 100.351 16.6238 100.551 16.6304C100.806 16.637 100.959 16.7697 101.02 17.0218C101.254 17.957 101.481 18.8989 101.742 19.8275C102.01 20.8026 102.311 21.7644 102.585 22.7328C102.839 23.6415 103.073 24.5502 103.327 25.4589C103.709 26.832 104.103 28.1984 104.478 29.5714C104.826 30.8649 105.147 32.1583 105.494 33.4517C105.688 34.1681 105.909 34.8778 106.123 35.5876C106.157 35.6804 106.17 35.7998 106.331 35.8529Z" fill="white"/>
<path d="M69.9762 47.3412C58.8927 47.3412 47.8159 47.3412 36.7324 47.3412C36.5518 47.3412 36.3779 47.3479 36.1973 47.3412C35.6688 47.328 35.5886 47.2218 35.6421 46.7111C35.6688 46.4856 35.7759 46.3994 35.9832 46.3994C36.1371 46.3994 36.2976 46.3927 36.4514 46.3927C58.8325 46.3927 81.2202 46.3927 103.601 46.3927C103.688 46.3927 103.782 46.3927 103.869 46.3927C104.284 46.4126 104.384 46.5055 104.37 46.8968C104.364 47.255 104.29 47.3213 103.876 47.3412C103.695 47.3479 103.521 47.3412 103.34 47.3412C92.2235 47.3412 81.0998 47.3412 69.9762 47.3412Z" fill="white"/>
<path d="M18.465 49.4704C20.766 49.5699 22.7726 49.9016 24.5719 51.0491C25.6221 51.719 26.5452 52.5349 27.3746 53.4568C27.6957 53.815 27.689 53.9012 27.3411 54.1997C26.9465 54.538 26.806 54.5446 26.5251 54.1931C25.3679 52.7471 23.8964 51.7323 22.1506 51.1154C21.4215 50.8567 20.6389 50.7439 19.8697 50.6644C18.1372 50.4853 16.4583 50.6445 14.9199 51.5598C13.9032 52.17 13.0537 52.9726 12.3112 53.8813C12.0236 54.2329 11.863 54.2661 11.5353 54.0074C11.0804 53.6492 11.1406 53.5895 11.4216 53.218C12.5453 51.7389 13.97 50.6644 15.6824 49.9546C16.0035 49.822 16.3513 49.7158 16.6991 49.6694C17.3546 49.5765 18.0101 49.4107 18.465 49.4704Z" fill="white"/>
<path d="M121.929 50.671C123.126 50.7307 124.344 50.7771 125.487 51.122C127.066 51.5996 128.504 52.3956 129.702 53.5497C130.083 53.9145 130.484 54.2727 130.798 54.7038C131.079 55.0819 131.079 55.0819 130.718 55.3804C130.277 55.7452 130.23 55.7452 129.909 55.3804C129.227 54.5977 128.497 53.8615 127.601 53.3176C126.384 52.5813 125.106 52.0241 123.648 51.918C122.959 51.8716 122.277 51.7853 121.588 51.792C119.916 51.8185 118.498 52.4619 117.22 53.4834C116.631 53.9543 116.123 54.5049 115.641 55.0886C115.36 55.4335 115.233 55.4467 114.886 55.1748C114.531 54.8962 114.504 54.7901 114.785 54.4186C115.541 53.4303 116.444 52.5946 117.514 51.9379C118.999 51.0292 120.304 50.6975 121.929 50.671Z" fill="white"/>
<path d="M33.7424 49.948C33.7424 52.5548 33.7424 55.1549 33.7424 57.7617C33.7424 57.8944 33.7357 58.027 33.7424 58.1597C33.7558 58.4714 33.6555 58.6638 33.301 58.6771C32.8796 58.6903 32.6923 58.5643 32.6455 58.1929C32.6254 58.0403 32.6388 57.8811 32.6388 57.7285C32.6388 52.5216 32.6388 47.3081 32.6388 42.1012C32.6388 42.0349 32.6388 41.9685 32.6388 41.9022C32.6521 41.3251 33 41.093 33.5551 41.292C33.6755 41.3384 33.7357 41.418 33.7357 41.5374C33.7424 41.7165 33.7424 41.8889 33.7424 42.068C33.7424 44.6947 33.7424 47.3214 33.7424 49.948Z" fill="white"/>
<path d="M109.22 49.9613C109.22 52.5482 109.22 55.1284 109.22 57.7153C109.22 57.848 109.227 57.9806 109.22 58.1133C109.2 58.5312 109.16 58.5776 108.765 58.5842C108.33 58.5975 108.23 58.5245 108.203 58.1332C108.19 58.0005 108.203 57.8679 108.203 57.7352C108.203 52.5217 108.203 47.3148 108.203 42.1012C108.203 42.015 108.203 41.9221 108.203 41.8359C108.223 41.3251 108.565 41.1063 109.046 41.2986C109.167 41.345 109.213 41.4313 109.22 41.5507C109.227 41.7298 109.227 41.9022 109.227 42.0813C109.22 44.708 109.22 47.3346 109.22 49.9613Z" fill="white"/>
<path d="M19.2612 46.1606C16.9468 46.1606 14.6258 46.1606 12.3114 46.1606C12.1776 46.1606 12.0439 46.1672 11.9101 46.1606C11.4619 46.1407 11.4485 46.1341 11.4419 45.7162C11.4352 45.2585 11.4686 45.2187 11.9034 45.1988C12.0372 45.1922 12.1709 45.1988 12.3047 45.1988C16.9803 45.1988 21.6625 45.1988 26.338 45.1988C26.4517 45.1988 26.5588 45.1988 26.6725 45.1988C27.1206 45.2121 27.3481 45.5968 27.1474 46.008C27.0939 46.1274 26.9935 46.154 26.8731 46.154C26.7193 46.154 26.5588 46.1606 26.4049 46.1606C24.0304 46.1606 21.6424 46.1606 19.2612 46.1606Z" fill="white"/>
<path d="M122.705 47.3412C120.277 47.3412 117.849 47.3412 115.421 47.3412C114.865 47.3412 114.819 47.2682 114.852 46.7309C114.886 46.2467 115.24 46.3926 115.494 46.3926C119.414 46.386 123.334 46.386 127.253 46.386C128.21 46.386 129.166 46.3794 130.129 46.386C130.558 46.3926 130.591 46.4324 130.598 46.8304C130.611 47.2947 130.578 47.3279 130.056 47.3345C127.608 47.3412 125.153 47.3412 122.705 47.3412Z" fill="white"/>
<path d="M0 52.373C0 46.6224 0 43.6554 0 37.9084C0 37.2902 0 37.2902 0.607558 37.2902C4.90048 37.2866 9.19341 37.2866 13.4827 37.283C13.6864 37.283 13.8974 37.2506 14.0939 37.3297C14.4504 37.4735 14.5668 37.779 14.6251 38.1204C14.636 38.1887 14.6287 38.2642 14.6287 38.3361C14.6287 41.5349 14.6287 39.6724 14.6287 42.8712C14.6287 43.3601 14.6214 43.3601 14.1776 43.1767C13.821 43.0294 13.4354 42.9719 13.0534 42.9359C12.766 42.9072 12.4713 42.9252 12.1803 42.9288C11.6564 42.9359 11.1543 43.033 10.6741 43.2486C10.4376 43.3565 10.3394 43.2954 10.3285 43.0402C10.3249 42.9575 10.3285 42.8712 10.3285 42.7886C10.3285 40.3913 10.3285 43.0588 10.3285 40.6615C10.3285 40.5644 10.3249 40.471 10.3285 40.374C10.3358 40.2014 10.2485 40.1367 10.0847 40.1475C10.0229 40.1511 9.96468 40.1475 9.90283 40.1475C7.23613 40.1511 6.27071 40.1547 3.60036 40.1583C3.23292 40.1583 3.24019 40.1619 3.13469 40.4997C3.08739 40.6543 3.09467 40.8088 3.09467 40.9634C3.09467 46.7716 3.09467 49.7996 3.09467 55.6078C3.09467 60.1723 3.09467 54.5301 3.09467 59.091C3.09467 59.2815 3.09831 59.4756 3.08375 59.6661C3.06556 59.8961 3.01827 59.9321 2.79635 59.9429C2.51985 59.9572 0.542073 59.9285 0.265579 59.9932C0.127333 60.0255 0.00727615 59.9393 0.00363807 59.7703C0 59.6625 0.00363807 59.5547 0.00363807 59.4469C0 53.689 0 58.1345 0 52.373Z" fill="white"/>
<path d="M14.4059 29.7733C14.4059 31.7303 14.4059 33.6909 14.4059 35.6479C14.4059 35.7303 14.4059 35.8163 14.4059 35.8988C14.3986 36.2321 14.3588 36.2715 14.0327 36.2823C13.9603 36.2823 13.8878 36.2823 13.8154 36.2823C11.6055 36.2859 9.39561 36.2357 7.18936 36.3038C5.52652 36.3575 3.86368 36.3647 2.20083 36.3826C2.0197 36.3862 1.83856 36.3791 1.65742 36.3719C1.29877 36.3575 1.05967 36.1676 0.950987 35.8235C0.911137 35.6945 0.900269 35.569 0.900269 35.4364C0.900269 31.508 0.900269 27.5797 0.900269 23.6477C0.900269 23.2463 0.936496 23.2141 1.33138 23.2141C5.54463 23.2141 9.75788 23.2141 13.9711 23.2141C14.3696 23.2141 14.4059 23.2463 14.4059 23.6477C14.4059 25.6872 14.4059 27.7302 14.4059 29.7733ZM7.77262 34.1604C8.27256 34.2285 8.75801 34.1317 9.22534 33.9848C9.77238 33.8127 10.2796 33.5511 10.7324 33.1926C11.4062 32.6622 11.8917 31.9919 12.1598 31.1926C12.4351 30.3826 12.5003 29.5439 12.3011 28.6944C12.138 28.0026 11.8663 27.3682 11.4243 26.8127C10.7034 25.913 9.77962 25.3718 8.62759 25.1675C7.81609 25.0241 7.0372 25.1173 6.28729 25.3718C5.37436 25.6764 4.59547 26.2033 4.04481 27.017C3.57748 27.7087 3.26592 28.4507 3.25505 29.2965C3.24781 29.8772 3.22969 30.4578 3.4217 31.0242C3.70065 31.8414 4.14625 32.5475 4.80559 33.1138C5.53014 33.7339 6.37062 34.103 7.33789 34.164C7.4828 34.1676 7.62771 34.1604 7.77262 34.1604Z" fill="white"/>
<path d="M7.7649 12.9465C9.61905 12.9465 11.4769 12.9465 13.331 12.9465C13.7597 12.9465 13.7304 12.9211 13.7304 13.335C13.7304 16.2615 13.7304 19.1879 13.7304 22.1143C13.7304 22.1869 13.7267 22.2596 13.7304 22.3322C13.7377 22.4883 13.6535 22.5464 13.5069 22.5428C13.4336 22.5391 13.3603 22.5428 13.287 22.5428C9.62638 22.5428 5.96573 22.5428 2.30141 22.5428C2.22813 22.5428 2.15484 22.5464 2.08155 22.5428C1.83238 22.5282 1.81406 22.5137 1.80306 22.2705C1.7994 22.1978 1.80306 22.1252 1.80306 22.0526C1.80306 19.1625 1.80306 16.2724 1.80306 13.3822C1.80306 13.3714 1.80306 13.3568 1.80306 13.3459C1.80673 12.9792 1.73344 12.9465 2.20248 12.9465C4.05662 12.9465 5.91076 12.9465 7.7649 12.9465Z" fill="white"/>
<path d="M7.569 8.70977C8.76641 8.70977 9.96019 8.70977 11.1576 8.70977C11.5132 8.70977 11.535 8.77125 11.4116 9.11481C11.2919 9.45115 11.212 9.80195 11.1141 10.1419C10.9689 10.6446 10.8274 11.1437 10.6823 11.6427C10.6169 11.8706 10.5335 12.0912 10.4682 12.319C10.4319 12.4456 10.363 12.4999 10.236 12.4999C10.1634 12.4999 10.0908 12.4999 10.0182 12.4999C8.33824 12.4999 6.65824 12.4999 4.97824 12.4999C4.59725 12.4999 4.60088 12.4962 4.49928 12.1274C4.29971 11.3932 4.08563 10.6663 3.89332 9.93214C3.80623 9.59943 3.73366 9.26309 3.61755 8.93761C3.57401 8.81465 3.61755 8.72062 3.76269 8.70977C3.86066 8.70253 3.955 8.70615 4.05297 8.70615C5.22498 8.70977 6.39699 8.70977 7.569 8.70977Z" fill="white"/>
<path d="M10.5681 8.2243C10.4496 8.27583 10.3274 8.25374 10.2052 8.25374C8.27925 8.25374 6.35332 8.25374 4.42739 8.25374C4.40147 8.25374 4.37924 8.25374 4.35332 8.25374C4.25702 8.24638 4.1311 8.29055 4.07554 8.20589C4.00517 8.09914 4.10517 7.99976 4.16443 7.90774C4.91999 6.72617 5.66813 5.5446 6.39776 4.34463C6.82739 3.64157 6.79777 2.98269 6.35702 2.32381C6.14221 2.00357 6.15332 1.69438 6.29777 1.35941C6.48295 0.928749 6.75332 0.549616 6.97925 0.144717C7.07184 -0.0246044 7.43851 -0.0577325 7.54591 0.111589C7.86814 0.615872 8.27554 1.06494 8.52369 1.6134C8.69777 1.99253 8.6348 2.12872 8.25703 2.35694C7.96443 2.53362 7.70517 2.75079 7.68666 3.1152C7.67184 3.40968 7.81258 3.66734 7.96073 3.925C8.77925 5.32743 9.66814 6.68568 10.5348 8.05865C10.5607 8.09546 10.5978 8.13227 10.5681 8.2243Z" fill="white"/>
</svg>
