<svg width="131" height="61" viewBox="0 0 131 61" fill="none" xmlns="http://www.w3.org/2000/svg">
<path d="M86.2438 28.4609C86.2438 25.0028 86.2438 21.5513 86.2438 18.0931C86.2438 17.9393 86.2505 17.7787 86.2438 17.6249C86.2304 17.3707 86.3575 17.2503 86.5916 17.2369C86.7722 17.2236 86.9462 17.2169 87.1268 17.2169C89.0197 17.2169 90.9194 17.2303 92.8123 17.2102C93.9294 17.1968 94.9126 17.5647 95.7621 18.2403C97.3073 19.4777 98.2236 21.0897 98.6986 23.0228C99.0263 24.3539 99.0196 25.6917 98.8725 27.0027C98.645 29.0763 97.7889 30.9224 96.2036 32.3605C96.1233 32.4341 96.0497 32.5211 95.9628 32.588C95.7019 32.7886 95.6283 32.996 95.7822 33.3304C96.2571 34.3806 96.6852 35.4508 97.14 36.5077C97.5481 37.4642 97.9695 38.414 98.3909 39.3638C98.5046 39.618 98.4377 39.7451 98.1501 39.7451C98.1032 39.7451 98.0631 39.7451 98.0163 39.7451C96.8792 39.7317 97.0732 39.8856 96.625 38.9023C95.9227 37.3505 95.2805 35.7719 94.625 34.2C94.3708 33.5913 94.3441 33.5378 93.7019 33.6983C93.1936 33.8254 92.6919 33.8455 92.1769 33.8455C90.8592 33.8455 89.5481 33.8388 88.2304 33.8455C87.6752 33.8455 87.6619 33.8589 87.6619 34.4007C87.6552 35.9592 87.6619 37.5244 87.6552 39.0829C87.6552 39.7384 87.6485 39.7384 86.9796 39.7451C86.8659 39.7451 86.7589 39.7384 86.6452 39.7451C86.3776 39.7518 86.2238 39.6514 86.2371 39.3571C86.2438 39.1765 86.2371 39.0026 86.2371 38.822C86.2438 35.3706 86.2438 31.9124 86.2438 28.4609ZM87.6686 25.4108C87.6686 27.4843 87.6686 29.5512 87.6686 31.6248C87.6686 32.2736 87.6752 32.2736 88.3374 32.2803C89.8291 32.2803 91.3207 32.2602 92.8123 32.2937C93.3675 32.307 93.8692 32.1465 94.3307 31.8923C96.1835 30.8756 97.1066 29.1833 97.4544 27.1967C97.6083 26.3205 97.6417 25.4108 97.5481 24.4877C97.4076 23.0964 96.9728 21.8523 96.1768 20.7286C95.207 19.3573 93.9026 18.6015 92.1769 18.6483C90.8859 18.6817 89.595 18.655 88.304 18.655C87.6752 18.655 87.6686 18.6617 87.6686 19.2704C87.6619 21.3105 87.6686 23.364 87.6686 25.4108Z" fill="#696774"/>
<path d="M32.6054 28.4876C32.6054 25.0362 32.6054 21.578 32.6054 18.1265C32.6054 17.9727 32.6188 17.8122 32.6054 17.6583C32.5853 17.3707 32.7392 17.2503 33.0001 17.2302C33.1539 17.2168 33.3144 17.2168 33.4683 17.2168C35.3612 17.2168 37.2542 17.2235 39.1538 17.2168C40.6856 17.2102 41.8629 17.9259 42.8929 18.9693C43.8762 19.9727 44.4983 21.1967 44.9264 22.5144C45.0735 22.9693 45.2006 23.4643 45.2207 23.9392C45.2742 24.9626 45.3478 26.006 45.2073 27.0094C44.9799 28.6883 44.3779 30.2535 43.2675 31.5846C42.9398 31.9792 42.5986 32.3538 42.1839 32.6615C41.9632 32.822 41.9164 32.9692 42.0501 33.2702C42.7525 34.8421 43.408 36.434 44.0836 38.0126C44.2642 38.4407 44.4715 38.8554 44.6521 39.2835C44.7993 39.6246 44.7324 39.7183 44.3645 39.745C43.3812 39.8186 43.2675 39.725 42.8929 38.8153C42.204 37.1698 41.4749 35.5377 40.7726 33.8922C40.6923 33.705 40.6321 33.5645 40.4047 33.618C38.6923 34.0461 36.9465 33.7785 35.2141 33.8387C33.7894 33.8856 33.9967 33.6514 33.9833 35.0896C33.97 36.4273 33.9833 37.7651 33.9766 39.1029C33.9766 39.3236 34.0101 39.6113 33.7693 39.6915C33.4348 39.7985 33.067 39.7918 32.7191 39.6781C32.6656 39.6581 32.6188 39.531 32.6121 39.4507C32.592 39.2768 32.5987 39.0962 32.5987 38.9156C32.6054 35.4441 32.6054 31.9659 32.6054 28.4876ZM33.9231 25.4174C33.9231 27.491 33.9231 29.5645 33.9231 31.6381C33.9231 32.2602 33.9432 32.2802 34.5586 32.2802C36.1171 32.2869 37.6756 32.2802 39.2408 32.2802C39.7893 32.2802 40.2709 32.0729 40.7525 31.8388C41.7358 31.3638 42.3645 30.5344 42.8863 29.6247C43.4414 28.6615 43.7291 27.6181 43.8762 26.4943C44.0033 25.5178 43.9097 24.5746 43.7558 23.6516C43.5418 22.374 42.9799 21.2034 42.1037 20.2202C41.2475 19.257 40.1773 18.6616 38.8528 18.655C37.4281 18.6416 36.0034 18.6483 34.572 18.655C33.9231 18.655 33.9164 18.6616 33.9164 19.3372C33.9231 21.3573 33.9231 23.3907 33.9231 25.4174Z" fill="#696774"/>
<path d="M125.387 39.7518C124.705 39.7518 124.705 39.7518 124.464 39.0695C124.17 38.2401 123.849 37.4173 123.574 36.5812C123.487 36.3137 123.347 36.2267 123.099 36.2334C122.986 36.2334 122.879 36.2334 122.765 36.2334C119.354 36.2334 115.942 36.2334 112.538 36.2334C111.822 36.2334 111.849 36.1531 111.595 36.8822C111.307 37.7183 110.972 38.5344 110.705 39.3772C110.611 39.6782 110.457 39.7451 110.183 39.7518C109.14 39.7919 109.146 39.7852 109.454 38.8153C109.989 37.1297 110.625 35.4842 111.166 33.8053C111.702 32.1465 112.357 30.5278 112.939 28.8823C113.508 27.277 114.043 25.6582 114.605 24.0462C115.146 22.4877 115.701 20.9292 116.243 19.3707C116.424 18.849 116.591 18.3205 116.758 17.7988C116.905 17.3306 117.033 17.2236 117.501 17.2102C118.223 17.1901 118.27 17.2102 118.457 17.7587C119.006 19.3439 119.528 20.9359 120.096 22.5078C120.926 24.7686 121.661 27.0629 122.511 29.3171C123.126 30.9492 123.641 32.6214 124.216 34.2669C124.738 35.7652 125.267 37.2568 125.795 38.7484C125.835 38.8554 125.869 38.9558 125.902 39.0628C126.109 39.7451 126.109 39.7518 125.387 39.7518ZM117.548 19.8657C117.394 20.2001 117.32 20.5747 117.186 20.9158C116.431 22.8088 115.849 24.7552 115.14 26.6616C114.665 27.9459 114.257 29.2502 113.809 30.5478C113.434 31.6314 113.039 32.7083 112.665 33.7986C112.39 34.5946 112.464 34.6883 113.287 34.6883C116.116 34.6883 118.946 34.6883 121.768 34.6883C122.925 34.6883 122.999 34.6214 122.544 33.5511C122.123 32.5478 121.829 31.511 121.447 30.4943C120.912 29.0897 120.497 27.6382 119.989 26.2268C119.273 24.2335 118.544 22.2402 117.895 20.2202C117.842 20.0596 117.755 19.9392 117.548 19.8657Z" fill="#696774"/>
<path d="M68.4043 51.0091C66.6183 51.0091 64.8324 50.9088 63.0598 51.0426C61.5816 51.1496 60.09 51.1696 58.6184 51.4506C57.9027 51.591 57.1535 51.5576 56.4311 51.6914C55.4746 51.8653 54.5047 51.9589 53.5415 52.1395C52.5583 52.3201 51.575 52.4941 50.5917 52.6747C48.8927 52.989 47.2138 53.3904 45.555 53.8519C43.6888 54.3669 41.8159 54.9088 39.9898 55.5776C39.0935 55.8987 38.2039 56.2332 37.3076 56.5542C36.8728 56.7081 36.7323 56.6412 36.5718 56.2532C36.4046 55.8519 36.4915 55.6245 36.9129 55.4773C38.2908 55.0024 39.6888 54.5676 41.0601 54.066C42.2239 53.6445 43.4145 53.3101 44.5985 52.969C45.6353 52.6747 46.6787 52.3603 47.7556 52.1931C48.1503 52.1329 48.5249 51.9924 48.9128 51.9054C50.0633 51.6512 51.2205 51.4706 52.3643 51.2165C53.6887 50.9288 55.0332 50.7616 56.3642 50.5543C57.1468 50.4339 57.9629 50.4004 58.7455 50.2867C60.3776 50.0593 62.023 50.1128 63.6551 49.8653C64.3307 49.7583 65.033 49.8185 65.722 49.8185C67.9762 49.8185 70.2303 49.7315 72.4778 49.872C74.1366 49.9723 75.8089 49.9656 77.461 50.2198C78.451 50.3737 79.461 50.3135 80.451 50.4941C81.5412 50.688 82.6583 50.7081 83.7419 50.9489C84.3439 51.0827 84.966 51.1028 85.5813 51.2232C86.772 51.4573 87.9693 51.678 89.1666 51.8854C90.4107 52.1061 91.6281 52.4339 92.8722 52.6613C93.802 52.8352 94.7117 53.1295 95.6281 53.3837C96.9926 53.7583 98.3571 54.1328 99.7083 54.5342C100.364 54.7282 101.006 54.969 101.655 55.1897C102.638 55.5308 103.621 55.8586 104.598 56.2198C105.133 56.4138 105.173 56.6345 104.872 57.1362C104.725 57.3837 104.564 57.4037 104.317 57.3168C102.825 56.7817 101.34 56.2064 99.822 55.7382C98.9591 55.4706 98.0762 55.2499 97.2133 54.969C96.2234 54.6479 95.2067 54.4205 94.21 54.1328C93.1264 53.8185 92.0094 53.6245 90.9124 53.3703C90.3104 53.2365 89.7084 53.1027 89.1064 52.9422C88.6716 52.8285 88.2301 52.8017 87.7954 52.7282C87.1599 52.6211 86.5245 52.5007 85.8957 52.3803C85.1599 52.2399 84.4041 52.1997 83.6683 51.9991C83.0128 51.8185 82.3038 51.8519 81.6215 51.7516C80.6316 51.6111 79.6148 51.591 78.6383 51.4305C77.1199 51.183 75.5814 51.2365 74.0631 51.0292C72.9259 50.8686 71.7487 50.969 70.5915 50.9556C69.8557 50.9489 69.12 50.9556 68.3842 50.9556C68.4043 50.9824 68.4043 50.9957 68.4043 51.0091Z" fill="#696774"/>
<path d="M18.291 28.4609C18.291 25.0495 18.291 21.6449 18.291 18.2335C18.291 18.1198 18.291 18.0128 18.291 17.8991C18.2977 17.257 18.3245 17.2235 18.98 17.2235C20.786 17.2168 22.592 17.2168 24.398 17.2235C25.6822 17.2302 26.7525 17.7319 27.6956 18.5881C29.02 19.7921 29.8093 21.2837 30.224 23.0161C30.5651 24.4341 30.5451 25.8656 30.3712 27.2635C30.1437 29.1231 29.3277 30.7886 28.01 32.1531C26.9464 33.2568 25.602 33.7986 24.0769 33.8454C22.8328 33.8856 21.582 33.8521 20.3311 33.8521C19.6823 33.8521 19.6756 33.8588 19.6756 34.5344C19.6689 35.9591 19.6756 37.3838 19.6756 38.8153C19.6756 38.9691 19.6756 39.1296 19.6689 39.2835C19.6556 39.5979 19.5218 39.7918 19.1739 39.7584C19.1271 39.7517 19.087 39.7584 19.0402 39.7584C18.3111 39.7718 18.2977 39.7651 18.2977 39.0293C18.291 35.4976 18.291 31.9792 18.291 28.4609ZM19.6154 25.4843C19.6154 27.511 19.6154 29.5378 19.6154 31.5645C19.6154 32.2735 19.6221 32.2802 20.3111 32.2802C21.602 32.2802 22.893 32.2535 24.1839 32.2936C25.2809 32.327 26.1705 31.899 26.9264 31.1699C28.6254 29.5445 29.2274 27.4642 29.1872 25.1967C29.1672 23.9659 28.8996 22.7352 28.2842 21.6315C27.2742 19.8188 25.9164 18.568 23.6622 18.6483C22.5719 18.6884 21.4816 18.6549 20.3913 18.6549C19.6154 18.6549 19.6087 18.6549 19.6087 19.4108C19.6154 21.4308 19.6154 23.4576 19.6154 25.4843Z" fill="#696774"/>
<path d="M65.7222 40.6547C63.5617 40.5611 61.7356 39.7919 60.3978 38.0126C59.8226 37.2434 59.3343 36.4407 58.9597 35.5578C58.8527 35.3036 58.8192 35.1698 59.0734 35.016C59.341 34.8621 59.5617 34.5678 59.8694 34.5745C60.3042 34.5745 60.2172 35.036 60.3443 35.2902C61.0533 36.7417 61.9898 37.9725 63.4881 38.6815C65.1536 39.4641 67.6084 39.2902 69.0666 37.7116C69.9696 36.7283 70.3241 35.5912 70.5315 34.3605C70.6385 33.7317 70.3843 33.1297 70.2238 32.5344C70.1101 32.0929 69.8894 31.6715 69.6285 31.2836C69.2405 30.715 68.7255 30.3404 68.0767 30.113C66.6988 29.6314 65.3342 29.1297 63.9697 28.6214C63.6821 28.5144 63.3877 28.4274 63.1068 28.2869C61.2741 27.404 60.3109 25.9191 59.9898 23.9458C59.8426 23.0295 59.8761 22.1131 60.0366 21.2235C60.3844 19.3506 61.2741 17.7921 63.0065 16.869C64.0767 16.3004 65.2606 16.2202 66.4446 16.4208C68.5382 16.782 69.9763 18.073 71.1067 19.7787C71.3743 20.1867 70.9395 20.996 70.4579 21.0228C70.2171 21.0362 70.1302 20.8422 70.0164 20.675C69.5348 19.9526 69.0064 19.2703 68.2573 18.7887C67.4814 18.2937 66.6854 17.879 65.7356 17.9191C65.1469 17.9459 64.565 17.879 63.9697 18.1064C62.5182 18.675 61.8159 19.8054 61.4547 21.2235C61.2874 21.8656 61.1135 22.5144 61.2005 23.1967C61.4078 24.7151 61.9965 25.9993 63.4011 26.7953C63.8092 27.0294 64.2573 27.1498 64.6921 27.3104C65.9362 27.7719 67.1937 28.2 68.4446 28.6281C70.1235 29.21 71.0131 30.4675 71.5348 32.0996C71.8826 33.1765 71.8425 34.2601 71.7288 35.3371C71.4746 37.7852 69.4947 39.9524 67.2339 40.4541C66.9998 40.5076 66.7723 40.6213 66.5315 40.648C66.264 40.6815 65.9897 40.6547 65.7222 40.6547Z" fill="#696774"/>
<path d="M73.9562 28.3941C73.9562 25.0095 73.9562 21.6182 73.9562 18.2336C73.9562 18.0798 73.9496 17.9193 73.9562 17.7654C73.9763 17.2972 73.9897 17.2771 74.4579 17.2704C75.4144 17.2638 76.3776 17.2771 77.3341 17.2638C79.4077 17.2437 81.4812 17.3106 83.5481 17.2236C84.1501 17.1969 84.1635 17.2303 84.1702 17.8658C84.1702 17.9527 84.1702 18.0464 84.1702 18.1333C84.1568 18.635 84.1501 18.6484 83.6351 18.6484C81.2271 18.655 78.8191 18.6484 76.4111 18.6484C76.2974 18.6484 76.1903 18.6484 76.0766 18.6484C75.3342 18.655 75.3275 18.655 75.3275 19.3975C75.3275 21.9192 75.3275 24.4342 75.3275 26.956C75.3275 27.7118 75.3542 27.7319 76.1301 27.7319C77.8692 27.7319 79.6083 27.7319 81.3475 27.7319C81.5281 27.7319 81.7086 27.7051 81.8826 27.7453C82.3909 27.8657 82.1367 28.287 82.1702 28.5747C82.1969 28.8155 82.2772 29.1499 81.8558 29.1834C81.702 29.1967 81.5414 29.19 81.3876 29.19C79.6485 29.19 77.9094 29.19 76.1703 29.19C76.0164 29.19 75.8559 29.1967 75.702 29.19C75.4612 29.19 75.3275 29.2971 75.3275 29.5513C75.3275 29.6382 75.3275 29.7319 75.3275 29.8188C75.3275 32.3606 75.3275 34.9024 75.3275 37.4441C75.3275 37.5311 75.3275 37.6247 75.3275 37.7117C75.3275 38.006 75.4679 38.1732 75.7689 38.1799C75.9495 38.1866 76.1234 38.1866 76.304 38.1866C78.6452 38.1866 80.9863 38.1866 83.3274 38.1866C83.4812 38.1866 83.6417 38.1866 83.7956 38.1866C83.9093 38.1866 84.0163 38.2134 84.0899 38.3137C84.1835 38.4341 84.2036 39.4909 84.1166 39.6314C84.0631 39.7117 83.9829 39.7451 83.8892 39.7518C83.7554 39.7585 83.6217 39.7585 83.4879 39.7585C80.5448 39.7585 77.6017 39.7585 74.6586 39.7585C74.5716 39.7585 74.478 39.7518 74.391 39.7585C74.1034 39.7853 73.983 39.6113 73.9629 39.3639C73.9429 39.1431 73.9429 38.9157 73.9429 38.695C73.9562 35.2569 73.9562 31.8255 73.9562 28.3941Z" fill="#696774"/>
<path d="M47.8493 28.5279C47.8493 25.1165 47.8493 21.7052 47.8493 18.3006C47.8493 18.1868 47.8493 18.0798 47.8493 17.9661C47.856 17.2437 47.8693 17.217 48.5984 17.217C51.5148 17.2103 54.4378 17.217 57.3542 17.217C57.4679 17.217 57.5749 17.2236 57.6886 17.2236C57.983 17.237 58.1167 17.3708 58.11 17.6852C58.09 18.7755 58.1903 18.6417 57.2004 18.6417C54.8191 18.6484 52.4312 18.6417 50.0499 18.6417C49.8961 18.6417 49.7356 18.6484 49.5817 18.6417C49.3075 18.6283 49.1603 18.742 49.167 19.0296C49.167 19.0765 49.167 19.1166 49.167 19.1634C49.167 21.7922 49.1603 24.4209 49.167 27.0496C49.167 27.5981 49.2205 27.6383 49.8024 27.6449C51.6084 27.6516 53.4144 27.6383 55.2204 27.6516C55.488 27.6516 55.8492 27.5045 56.003 27.8523C56.1703 28.2269 56.1234 28.6416 56.0298 29.0295C55.9763 29.2436 55.7288 29.1767 55.5616 29.1767C54.4914 29.1834 53.4211 29.1767 52.3509 29.1767C51.5014 29.1767 50.6586 29.17 49.8091 29.1767C49.1871 29.1834 49.167 29.1968 49.167 29.8121C49.1603 32.0864 49.167 34.3606 49.167 36.6348C49.167 36.9492 49.1603 37.2569 49.167 37.5713C49.1804 38.1264 49.2071 38.1666 49.7891 38.1666C51.1268 38.1733 52.4646 38.1666 53.8024 38.1666C55.0265 38.1666 56.2505 38.1599 57.4813 38.1666C58.09 38.1666 58.1034 38.1799 58.1034 38.7485C58.1034 39.8589 58.1903 39.7318 57.1535 39.7318C54.371 39.7385 51.5817 39.7318 48.7991 39.7318C48.6453 39.7318 48.4847 39.7251 48.3309 39.7318C48.0031 39.7518 47.8225 39.6314 47.8493 39.2769C47.8627 39.0963 47.8493 38.9224 47.8493 38.7418C47.8493 35.3505 47.8493 31.9392 47.8493 28.5279Z" fill="#696774"/>
<path d="M106.331 36.6148C106.565 35.7853 106.832 34.9827 107.013 34.1666C107.24 33.1298 107.601 32.1332 107.815 31.0964C107.976 30.3272 108.27 29.5847 108.471 28.8222C108.625 28.2403 108.799 27.665 108.933 27.0898C109.18 26.0128 109.528 24.9627 109.795 23.8925C110.137 22.5413 110.498 21.2035 110.859 19.8591C111.046 19.1567 111.24 18.4544 111.448 17.7587C111.595 17.2571 111.621 17.2437 112.143 17.2236C112.21 17.2236 112.277 17.2236 112.344 17.2236C112.993 17.2303 113.06 17.324 112.866 17.9193C112.631 18.635 112.484 19.3775 112.257 20.0865C111.943 21.0764 111.715 22.0865 111.427 23.0831C111.173 23.946 110.939 24.8289 110.718 25.7052C110.444 26.7955 110.123 27.8724 109.842 28.9627C109.494 30.3071 109.1 31.6449 108.765 32.9961C108.444 34.2803 108.009 35.5378 107.682 36.8221C107.488 37.5713 107.28 38.3137 107.086 39.0562C107.02 39.3104 107.013 39.6381 106.732 39.7251C106.397 39.8321 106.023 39.7987 105.675 39.705C105.555 39.6716 105.535 39.5512 105.508 39.4375C105.274 38.5211 105.046 37.598 104.792 36.6816C104.438 35.4041 104.056 34.1399 103.702 32.8623C103.441 31.9258 103.207 30.9827 102.953 30.0462C102.591 28.7018 102.224 27.364 101.856 26.0195C101.501 24.7018 101.147 23.3774 100.785 22.053C100.525 21.0965 100.25 20.14 99.9895 19.1835C99.849 18.6751 99.7152 18.1601 99.5948 17.6517C99.5279 17.3708 99.6617 17.2303 99.9493 17.2303C100.15 17.2303 100.351 17.2236 100.551 17.2303C100.806 17.237 100.959 17.3708 101.02 17.625C101.254 18.5681 101.481 19.5179 101.742 20.4544C102.01 21.4376 102.311 22.4075 102.585 23.3841C102.839 24.3005 103.073 25.2169 103.327 26.1332C103.709 27.5178 104.103 28.8958 104.478 30.2804C104.826 31.5847 105.147 32.889 105.494 34.1934C105.688 34.9158 105.909 35.6315 106.123 36.3472C106.157 36.4408 106.17 36.5612 106.331 36.6148Z" fill="#696774"/>
<path d="M69.9762 48.1999C58.8927 48.1999 47.8159 48.1999 36.7324 48.1999C36.5518 48.1999 36.3779 48.2066 36.1973 48.1999C35.6688 48.1865 35.5886 48.0795 35.6421 47.5645C35.6688 47.337 35.7759 47.2501 35.9832 47.2501C36.1371 47.2501 36.2976 47.2434 36.4514 47.2434C58.8325 47.2434 81.2202 47.2434 103.601 47.2434C103.688 47.2434 103.782 47.2434 103.869 47.2434C104.284 47.2635 104.384 47.3571 104.37 47.7518C104.364 48.113 104.29 48.1798 103.876 48.1999C103.695 48.2066 103.521 48.1999 103.34 48.1999C92.2235 48.1999 81.0998 48.1999 69.9762 48.1999Z" fill="#696774"/>
<path d="M18.465 50.347C20.766 50.4473 22.7726 50.7818 24.5719 51.9389C25.6221 52.6145 26.5452 53.4372 27.3746 54.367C27.6957 54.7282 27.689 54.8151 27.3411 55.1161C26.9465 55.4573 26.806 55.464 26.5251 55.1095C25.3679 53.6513 23.8964 52.6279 22.1506 52.0058C21.4215 51.745 20.6389 51.6312 19.8697 51.551C18.1372 51.3704 16.4583 51.5309 14.9199 52.454C13.9032 53.0694 13.0537 53.8787 12.3112 54.7951C12.0236 55.1496 11.863 55.183 11.5353 54.9222C11.0804 54.561 11.1406 54.5008 11.4216 54.1262C12.5453 52.6346 13.97 51.551 15.6824 50.8353C16.0035 50.7015 16.3513 50.5945 16.6991 50.5477C17.3546 50.454 18.0101 50.2868 18.465 50.347Z" fill="#696774"/>
<path d="M121.929 51.5576C123.126 51.6178 124.344 51.6646 125.487 52.0125C127.066 52.4941 128.504 53.2967 129.702 54.4606C130.083 54.8285 130.484 55.1897 130.798 55.6245C131.079 56.0057 131.079 56.0057 130.718 56.3067C130.277 56.6746 130.23 56.6746 129.909 56.3067C129.227 55.5174 128.497 54.775 127.601 54.2265C126.384 53.484 125.106 52.9221 123.648 52.8151C122.959 52.7683 122.277 52.6813 121.588 52.688C119.916 52.7148 118.498 53.3636 117.22 54.3937C116.631 54.8686 116.123 55.4238 115.641 56.0124C115.36 56.3602 115.233 56.3736 114.886 56.0994C114.531 55.8184 114.504 55.7114 114.785 55.3368C115.541 54.3402 116.444 53.4974 117.514 52.8352C118.999 51.9188 120.304 51.5844 121.929 51.5576Z" fill="#696774"/>
<path d="M33.7423 50.8286C33.7423 53.4574 33.7423 56.0794 33.7423 58.7081C33.7423 58.8419 33.7356 58.9757 33.7423 59.1095C33.7557 59.4238 33.6554 59.6178 33.3008 59.6312C32.8794 59.6446 32.6922 59.5175 32.6453 59.1429C32.6253 58.9891 32.6386 58.8285 32.6386 58.6747C32.6386 53.4239 32.6386 48.1664 32.6386 42.9157C32.6386 42.8488 32.6386 42.7819 32.6386 42.715C32.652 42.1331 32.9998 41.899 33.555 42.0996C33.6754 42.1464 33.7356 42.2267 33.7356 42.3471C33.7423 42.5277 33.7423 42.7016 33.7423 42.8822C33.7423 45.531 33.7423 48.1798 33.7423 50.8286Z" fill="#696774"/>
<path d="M109.22 50.842C109.22 53.4507 109.22 56.0526 109.22 58.6613C109.22 58.7951 109.227 58.9289 109.22 59.0626C109.2 59.484 109.16 59.5309 108.765 59.5376C108.33 59.5509 108.23 59.4774 108.203 59.0827C108.19 58.9489 108.203 58.8152 108.203 58.6814C108.203 53.4239 108.203 48.1731 108.203 42.9156C108.203 42.8287 108.203 42.735 108.203 42.6481C108.223 42.133 108.564 41.9123 109.046 42.1063C109.166 42.1531 109.213 42.2401 109.22 42.3605C109.227 42.5411 109.227 42.715 109.227 42.8956C109.22 45.5444 109.22 48.1932 109.22 50.842Z" fill="#696774"/>
<path d="M19.2612 47.0092C16.9468 47.0092 14.6258 47.0092 12.3114 47.0092C12.1776 47.0092 12.0439 47.0159 11.9101 47.0092C11.4619 46.9891 11.4485 46.9825 11.4419 46.5611C11.4352 46.0995 11.4686 46.0594 11.9034 46.0393C12.0372 46.0327 12.1709 46.0393 12.3047 46.0393C16.9803 46.0393 21.6625 46.0393 26.338 46.0393C26.4517 46.0393 26.5588 46.0393 26.6725 46.0393C27.1206 46.0527 27.3481 46.4407 27.1474 46.8554C27.0939 46.9758 26.9935 47.0025 26.8731 47.0025C26.7193 47.0025 26.5588 47.0092 26.4049 47.0092C24.0304 47.0092 21.6424 47.0092 19.2612 47.0092Z" fill="#696774"/>
<path d="M122.705 48.1997C120.277 48.1997 117.849 48.1997 115.42 48.1997C114.865 48.1997 114.818 48.1262 114.852 47.5844C114.885 47.0961 115.24 47.2432 115.494 47.2432C119.414 47.2365 123.333 47.2365 127.253 47.2365C128.21 47.2365 129.166 47.2298 130.129 47.2365C130.557 47.2432 130.591 47.2834 130.598 47.6847C130.611 48.1529 130.578 48.1864 130.056 48.1931C127.608 48.1997 125.153 48.1997 122.705 48.1997Z" fill="#696774"/>
<path d="M0 53.2741C0 47.475 0 44.483 0 38.6876C0 38.0641 0 38.0641 0.607558 38.0641C4.90048 38.0605 9.19341 38.0605 13.4827 38.0569C13.6864 38.0569 13.8974 38.0243 14.0939 38.104C14.4504 38.249 14.5668 38.5571 14.6251 38.9014C14.636 38.9703 14.6287 39.0464 14.6287 39.1189C14.6287 42.3446 14.6287 40.4665 14.6287 43.6923C14.6287 44.1852 14.6214 44.1852 14.1776 44.0003C13.821 43.8517 13.4354 43.7937 13.0534 43.7575C12.766 43.7285 12.4713 43.7466 12.1803 43.7502C11.6564 43.7575 11.1543 43.8554 10.6741 44.0728C10.4376 44.1816 10.3394 44.1199 10.3285 43.8626C10.3249 43.7792 10.3285 43.6923 10.3285 43.6089C10.3285 41.1914 10.3285 43.8814 10.3285 41.4639C10.3285 41.366 10.3249 41.2718 10.3285 41.1739C10.3358 40.9999 10.2485 40.9347 10.0847 40.9456C10.0229 40.9492 9.96468 40.9456 9.90283 40.9456C7.23613 40.9492 6.27071 40.9528 3.60036 40.9565C3.23292 40.9565 3.24019 40.9601 3.13469 41.3008C3.08739 41.4566 3.09467 41.6125 3.09467 41.7683C3.09467 47.6254 3.09467 50.679 3.09467 56.5361C3.09467 61.1391 3.09467 55.4493 3.09467 60.0487C3.09467 60.2408 3.09831 60.4365 3.08375 60.6286C3.06556 60.8606 3.01827 60.8968 2.79635 60.9077C2.51985 60.9222 0.542073 60.8932 0.265579 60.9584C0.127333 60.9911 0.00727615 60.9041 0.00363807 60.7337C0 60.625 0.00363807 60.5163 0.00363807 60.4075C0 54.6012 0 59.0841 0 53.2741Z" fill="#696774"/>
<path d="M14.406 30.4839C14.406 32.4574 14.406 34.4345 14.406 36.408C14.406 36.4911 14.406 36.5778 14.406 36.661C14.3987 36.9971 14.3589 37.0369 14.0328 37.0477C13.9604 37.0477 13.8879 37.0477 13.8155 37.0477C11.6056 37.0513 9.39573 37.0007 7.18948 37.0694C5.52664 37.1236 3.8638 37.1309 2.20096 37.1489C2.01982 37.1525 1.83868 37.1453 1.65754 37.1381C1.29889 37.1236 1.05979 36.9321 0.951109 36.5851C0.911259 36.455 0.900391 36.3284 0.900391 36.1947C0.900391 32.2333 0.900391 28.2718 0.900391 24.3067C0.900391 23.9019 0.936618 23.8694 1.3315 23.8694C5.54475 23.8694 9.75801 23.8694 13.9713 23.8694C14.3698 23.8694 14.406 23.9019 14.406 24.3067C14.406 26.3634 14.406 28.4236 14.406 30.4839ZM7.77274 34.908C8.27268 34.9766 8.75813 34.879 9.22546 34.7309C9.7725 34.5574 10.2797 34.2935 10.7325 33.9321C11.4064 33.3971 11.8918 32.7212 12.1599 31.9152C12.4352 31.0983 12.5004 30.2525 12.3012 29.3959C12.1381 28.6983 11.8664 28.0586 11.4245 27.4983C10.7035 26.5911 9.77974 26.0453 8.62771 25.8393C7.81621 25.6947 7.03732 25.7887 6.28741 26.0453C5.37448 26.3525 4.59559 26.8838 4.04493 27.7043C3.5776 28.4019 3.26604 29.1501 3.25518 30.0031C3.24793 30.5887 3.22982 31.1742 3.42182 31.7453C3.70077 32.5694 4.14637 33.2815 4.80571 33.8525C5.53026 34.4778 6.37074 34.8501 7.33801 34.9116C7.48292 34.9152 7.62783 34.908 7.77274 34.908Z" fill="#696774"/>
<path d="M7.76478 13.5153C9.61893 13.5153 11.4767 13.5153 13.3309 13.5153C13.7596 13.5153 13.7303 13.4897 13.7303 13.9071C13.7303 16.8582 13.7303 19.8093 13.7303 22.7604C13.7303 22.8336 13.7266 22.9068 13.7303 22.98C13.7376 23.1375 13.6533 23.1961 13.5068 23.1924C13.4335 23.1887 13.3602 23.1924 13.2869 23.1924C9.62625 23.1924 5.9656 23.1924 2.30129 23.1924C2.228 23.1924 2.15472 23.1961 2.08143 23.1924C1.83226 23.1778 1.81394 23.1631 1.80294 22.9178C1.79928 22.8446 1.80294 22.7713 1.80294 22.6981C1.80294 19.7836 1.80294 16.8692 1.80294 13.9547C1.80294 13.9437 1.80294 13.9291 1.80294 13.9181C1.80661 13.5483 1.73332 13.5153 2.20235 13.5153C4.0565 13.5153 5.91064 13.5153 7.76478 13.5153Z" fill="#696774"/>
<path d="M7.56912 9.24284C8.76653 9.24284 9.96031 9.24284 11.1577 9.24284C11.5133 9.24284 11.5351 9.30484 11.4117 9.6513C11.292 9.99047 11.2121 10.3442 11.1142 10.687C10.969 11.194 10.8275 11.6973 10.6824 12.2005C10.6171 12.4303 10.5336 12.6528 10.4683 12.8825C10.432 13.0102 10.3631 13.0649 10.2361 13.0649C10.1635 13.0649 10.0909 13.0649 10.0184 13.0649C8.33836 13.0649 6.65836 13.0649 4.97836 13.0649C4.59737 13.0649 4.601 13.0612 4.4994 12.6892C4.29983 11.9489 4.08575 11.2159 3.89344 10.4755C3.80635 10.14 3.73378 9.80083 3.61767 9.4726C3.57413 9.3486 3.61767 9.25378 3.76281 9.24284C3.86078 9.23555 3.95512 9.23919 4.05309 9.23919C5.2251 9.24284 6.39711 9.24284 7.56912 9.24284Z" fill="#696774"/>
<path d="M10.568 8.75335C10.4495 8.80532 10.3273 8.78305 10.2051 8.78305C8.27913 8.78305 6.3532 8.78305 4.42727 8.78305C4.40134 8.78305 4.37912 8.78305 4.3532 8.78305C4.2569 8.77563 4.13097 8.82017 4.07542 8.73479C4.00505 8.62715 4.10505 8.52693 4.16431 8.43413C4.91986 7.2426 5.66801 6.05108 6.39764 4.84099C6.82727 4.13202 6.79764 3.46759 6.3569 2.80315C6.14209 2.48022 6.1532 2.16842 6.29764 1.83063C6.48283 1.39634 6.7532 1.01401 6.97912 0.605699C7.07172 0.434951 7.43838 0.401544 7.54579 0.572292C7.86801 1.08082 8.27542 1.53368 8.52357 2.08675C8.69765 2.46908 8.63468 2.60642 8.2569 2.83656C7.96431 3.01473 7.70505 3.23374 7.68653 3.60121C7.67172 3.89817 7.81246 4.158 7.96061 4.41784C8.77913 5.83208 9.66802 7.20177 10.5347 8.58632C10.5606 8.62344 10.5976 8.66056 10.568 8.75335Z" fill="#696774"/>
</svg>
